<svg xmlns="http://www.w3.org/2000/svg" xmlns:xlink="http://www.w3.org/1999/xlink" viewBox="0 0 960 540"><defs><style>.a,.g{fill:none;}.b{clip-path:url(#a);}.c{fill:#fff;}.d{fill:#ff0;}.e{fill:#bdd7ee;}.f{fill:#a9d18e;}.g{stroke:#000;stroke-linejoin:round;}.h{clip-path:url(#b);}.i,.k{font-size:18px;}.aa,.i{font-family:Calibri-Bold, Calibri;font-weight:700;}.j{clip-path:url(#c);}.k,.l{font-family:Calibri, Calibri;}.l{font-size:18.02px;}.m{clip-path:url(#r);}.n{clip-path:url(#s);}.o{clip-path:url(#x);}.p{clip-path:url(#y);}.q{clip-path:url(#af);}.r{clip-path:url(#ag);}.s{clip-path:url(#al);}.t{clip-path:url(#am);}.u{clip-path:url(#ap);}.v{clip-path:url(#aq);}.w{clip-path:url(#at);}.x{clip-path:url(#au);}.y{clip-path:url(#ax);}.z{clip-path:url(#ay);}.aa{font-size:24px;}.ab{letter-spacing:0em;}.ac{letter-spacing:0em;}.ad{letter-spacing:0em;}.ae{letter-spacing:0em;}.af{letter-spacing:0em;}</style><clipPath id="a" transform="translate(20.11 30.6)"><rect class="a" x="-20.11" y="-30.6" width="960" height="540"/></clipPath><clipPath id="b" transform="translate(20.11 30.6)"><rect class="a" x="46.85" y="114.36" width="54.12" height="151.32"/></clipPath><clipPath id="c" transform="translate(20.11 30.6)"><rect class="a" x="100.85" y="114.36" width="54.12" height="151.32"/></clipPath><clipPath id="r" transform="translate(20.11 30.6)"><rect class="a" x="254.81" y="30.36" width="54.12" height="151.32"/></clipPath><clipPath id="s" transform="translate(20.11 30.6)"><rect class="a" x="308.81" y="30.36" width="54.12" height="151.32"/></clipPath><clipPath id="x" transform="translate(20.11 30.6)"><rect class="a" x="254.81" y="169.32" width="54.12" height="151.32"/></clipPath><clipPath id="y" transform="translate(20.11 30.6)"><rect class="a" x="308.81" y="169.32" width="54.12" height="151.32"/></clipPath><clipPath id="af" transform="translate(20.11 30.6)"><rect class="a" x="254.81" y="337.56" width="54.12" height="151.32"/></clipPath><clipPath id="ag" transform="translate(20.11 30.6)"><rect class="a" x="308.81" y="337.56" width="54.12" height="151.32"/></clipPath><clipPath id="al" transform="translate(20.11 30.6)"><rect class="a" x="462.77" y="55.92" width="54.12" height="151.32"/></clipPath><clipPath id="am" transform="translate(20.11 30.6)"><rect class="a" x="516.89" y="55.92" width="54" height="151.32"/></clipPath><clipPath id="ap" transform="translate(20.11 30.6)"><rect class="a" x="459.89" y="201.96" width="54" height="151.32"/></clipPath><clipPath id="aq" transform="translate(20.11 30.6)"><rect class="a" x="513.89" y="201.96" width="54" height="151.32"/></clipPath><clipPath id="at" transform="translate(20.11 30.6)"><rect class="a" x="462.77" y="366.72" width="54.12" height="142.68"/></clipPath><clipPath id="au" transform="translate(20.11 30.6)"><rect class="a" x="516.89" y="366.72" width="54" height="142.68"/></clipPath><clipPath id="ax" transform="translate(20.11 30.6)"><rect class="a" x="670.85" y="140.16" width="54.12" height="151.32"/></clipPath><clipPath id="ay" transform="translate(20.11 30.6)"><rect class="a" x="724.85" y="140.16" width="54.12" height="151.32"/></clipPath></defs><title>split-apply-combine</title><g class="b"><rect class="c" width="960" height="540"/></g><rect class="d" x="67" y="235.4" width="54" height="29.2"/><rect class="d" x="121" y="235.4" width="54" height="29.2"/><rect class="e" x="67" y="264.6" width="54" height="29.2"/><rect class="e" x="121" y="264.6" width="54" height="29.2"/><rect class="f" x="67" y="293.8" width="54" height="29.2"/><rect class="f" x="121" y="293.8" width="54" height="29.2"/><rect class="f" x="67" y="323" width="54" height="29.2"/><rect class="f" x="121" y="323" width="54" height="29.2"/><rect class="e" x="67" y="352.2" width="54" height="29.2"/><rect class="e" x="121" y="352.2" width="54" height="29.2"/><rect class="e" x="67" y="381.4" width="54" height="29.2"/><rect class="e" x="121" y="381.4" width="54" height="29.2"/><rect class="d" x="67" y="410.6" width="54" height="29.2"/><rect class="d" x="121" y="410.6" width="54" height="29.2"/><line class="g" x1="121" y1="205.7" x2="121" y2="440.3"/><line class="g" x1="66.5" y1="235.4" x2="175.5" y2="235.4"/><line class="g" x1="66.5" y1="264.6" x2="175.5" y2="264.6"/><line class="g" x1="66.5" y1="293.8" x2="175.5" y2="293.8"/><line class="g" x1="66.5" y1="323" x2="175.5" y2="323"/><line class="g" x1="66.5" y1="352.2" x2="175.5" y2="352.2"/><line class="g" x1="66.5" y1="381.4" x2="175.5" y2="381.4"/><line class="g" x1="66.5" y1="410.6" x2="175.5" y2="410.6"/><line class="g" x1="67" y1="205.7" x2="67" y2="440.3"/><line class="g" x1="175" y1="205.7" x2="175" y2="440.3"/><line class="g" x1="66.5" y1="206.2" x2="175.5" y2="206.2"/><line class="g" x1="66.5" y1="439.8" x2="175.5" y2="439.8"/><g class="h"><text class="i" transform="translate(77.62 226.66)">Col1</text></g><g class="j"><text class="i" transform="translate(131.64 226.66)">Col2</text></g><g class="b"><text class="k" transform="translate(88.78 255.86)">A</text></g><g class="b"><text class="k" transform="translate(143.4 255.86)">1</text></g><g class="b"><text class="k" transform="translate(89.02 285.07)">B</text></g><g class="b"><text class="k" transform="translate(143.4 285.07)">6</text></g><g class="b"><text class="k" transform="translate(89.14 314.28)">C</text></g><g class="b"><text class="k" transform="translate(138.84 314.28)">10</text></g><g class="b"><text class="k" transform="translate(89.14 343.49)">C</text></g><g class="b"><text class="k" transform="translate(143.4 343.49)">4</text></g><g class="b"><text class="k" transform="translate(89.02 372.7)">B</text></g><g class="b"><text class="k" transform="translate(143.4 372.7)">4</text></g><g class="b"><text class="l" transform="translate(89.02 401.88)">B</text></g><g class="b"><text class="l" transform="translate(143.4 401.88)">5</text></g><g class="b"><text class="l" transform="translate(88.78 431.09)">A</text></g><g class="b"><text class="l" transform="translate(143.4 431.09)">3</text></g><rect class="d" x="275" y="151.4" width="54" height="29.2"/><rect class="d" x="329" y="151.4" width="54" height="29.2"/><rect class="d" x="275" y="180.6" width="54" height="29.2"/><rect class="d" x="329" y="180.6" width="54" height="29.2"/><line class="g" x1="329" y1="121.7" x2="329" y2="210.3"/><line class="g" x1="274.5" y1="151.4" x2="383.5" y2="151.4"/><line class="g" x1="274.5" y1="180.6" x2="383.5" y2="180.6"/><line class="g" x1="275" y1="121.7" x2="275" y2="210.3"/><line class="g" x1="383" y1="121.7" x2="383" y2="210.3"/><line class="g" x1="274.5" y1="122.2" x2="383.5" y2="122.2"/><line class="g" x1="274.5" y1="209.8" x2="383.5" y2="209.8"/><g class="m"><text class="i" transform="translate(285.65 142.63)">Col1</text></g><g class="n"><text class="i" transform="translate(339.67 142.63)">Col2</text></g><g class="b"><text class="k" transform="translate(296.81 171.84)">A</text></g><g class="b"><text class="k" transform="translate(351.43 171.84)">1</text></g><g class="b"><text class="k" transform="translate(296.81 201.05)">A</text></g><g class="b"><text class="k" transform="translate(351.43 201.05)">3</text></g><rect class="e" x="275" y="290.4" width="54" height="29.2"/><rect class="e" x="329" y="290.4" width="54" height="29.2"/><rect class="e" x="275" y="319.6" width="54" height="29.2"/><rect class="e" x="329" y="319.6" width="54" height="29.2"/><rect class="e" x="275" y="348.8" width="54" height="29.2"/><rect class="e" x="329" y="348.8" width="54" height="29.2"/><line class="g" x1="329" y1="260.7" x2="329" y2="378.5"/><line class="g" x1="274.5" y1="290.4" x2="383.5" y2="290.4"/><line class="g" x1="274.5" y1="319.6" x2="383.5" y2="319.6"/><line class="g" x1="274.5" y1="348.8" x2="383.5" y2="348.8"/><line class="g" x1="275" y1="260.7" x2="275" y2="378.5"/><line class="g" x1="383" y1="260.7" x2="383" y2="378.5"/><line class="g" x1="274.5" y1="261.2" x2="383.5" y2="261.2"/><line class="g" x1="274.5" y1="378" x2="383.5" y2="378"/><g class="o"><text class="i" transform="translate(285.65 281.66)">Col1</text></g><g class="p"><text class="i" transform="translate(339.67 281.66)">Col2</text></g><g class="b"><text class="k" transform="translate(297.05 310.87)">B</text></g><g class="b"><text class="k" transform="translate(351.43 310.87)">6</text></g><g class="b"><text class="k" transform="translate(297.05 340.08)">B</text></g><g class="b"><text class="k" transform="translate(351.43 340.08)">4</text></g><g class="b"><text class="k" transform="translate(297.05 369.29)">B</text></g><g class="b"><text class="k" transform="translate(351.43 369.29)">5</text></g><rect class="f" x="275" y="458.6" width="54" height="29.2"/><rect class="f" x="329" y="458.6" width="54" height="29.2"/><rect class="f" x="275" y="487.8" width="54" height="29.2"/><rect class="f" x="329" y="487.8" width="54" height="29.2"/><line class="g" x1="329" y1="428.9" x2="329" y2="517.5"/><line class="g" x1="274.5" y1="458.6" x2="383.5" y2="458.6"/><line class="g" x1="274.5" y1="487.8" x2="383.5" y2="487.8"/><line class="g" x1="275" y1="428.9" x2="275" y2="517.5"/><line class="g" x1="383" y1="428.9" x2="383" y2="517.5"/><line class="g" x1="274.5" y1="429.4" x2="383.5" y2="429.4"/><line class="g" x1="274.5" y1="517" x2="383.5" y2="517"/><g class="q"><text class="i" transform="translate(285.65 449.9)">Col1</text></g><g class="r"><text class="i" transform="translate(339.67 449.9)">Col2</text></g><g class="b"><text class="k" transform="translate(297.17 479.11)">C</text></g><g class="b"><text class="k" transform="translate(346.85 479.11)">10</text></g><g class="b"><text class="k" transform="translate(297.17 508.32)">C</text></g><g class="b"><text class="k" transform="translate(351.43 508.32)">4</text></g><rect class="d" x="483" y="177" width="54" height="29.2"/><rect class="d" x="537" y="177" width="54" height="29.2"/><line class="g" x1="537" y1="147.3" x2="537" y2="206.7"/><line class="g" x1="482.5" y1="177" x2="591.5" y2="177"/><line class="g" x1="483" y1="147.3" x2="483" y2="206.7"/><line class="g" x1="591" y1="147.3" x2="591" y2="206.7"/><line class="g" x1="482.5" y1="147.8" x2="591.5" y2="147.8"/><line class="g" x1="482.5" y1="206.2" x2="591.5" y2="206.2"/><g class="s"><text class="i" transform="translate(493.68 168.24)">Col1</text></g><g class="t"><text class="i" transform="translate(547.68 168.24)">Col2</text></g><g class="b"><text class="k" transform="translate(504.84 197.45)">A</text></g><g class="b"><text class="k" transform="translate(559.44 197.45)">2</text></g><rect class="e" x="480" y="323" width="54" height="29.2"/><rect class="e" x="534" y="323" width="54" height="29.2"/><line class="g" x1="534" y1="293.3" x2="534" y2="352.7"/><line class="g" x1="479.5" y1="323" x2="588.5" y2="323"/><line class="g" x1="480" y1="293.3" x2="480" y2="352.7"/><line class="g" x1="588" y1="293.3" x2="588" y2="352.7"/><line class="g" x1="479.5" y1="293.8" x2="588.5" y2="293.8"/><line class="g" x1="479.5" y1="352.2" x2="588.5" y2="352.2"/><g class="u"><text class="i" transform="translate(490.68 314.28)">Col1</text></g><g class="v"><text class="i" transform="translate(544.68 314.28)">Col2</text></g><g class="b"><text class="k" transform="translate(502.08 343.49)">B</text></g><g class="b"><text class="k" transform="translate(556.44 343.49)">5</text></g><rect class="f" x="483" y="487.77" width="54" height="29.2"/><rect class="f" x="537" y="487.77" width="54" height="29.2"/><line class="g" x1="537" y1="458.07" x2="537" y2="517.47"/><line class="g" x1="482.5" y1="487.77" x2="591.5" y2="487.77"/><line class="g" x1="483" y1="458.07" x2="483" y2="517.47"/><line class="g" x1="591" y1="458.07" x2="591" y2="517.47"/><line class="g" x1="482.5" y1="458.57" x2="591.5" y2="458.57"/><line class="g" x1="482.5" y1="516.97" x2="591.5" y2="516.97"/><g class="w"><text class="i" transform="translate(493.68 479.09)">Col1</text></g><g class="x"><text class="i" transform="translate(547.68 479.09)">Col2</text></g><g class="b"><text class="k" transform="translate(505.2 508.3)">C</text></g><g class="b"><text class="k" transform="translate(559.44 508.3)">7</text></g><rect class="d" x="691" y="261.2" width="54" height="29.2"/><rect class="d" x="745" y="261.2" width="54" height="29.2"/><rect class="e" x="691" y="290.4" width="54" height="29.2"/><rect class="e" x="745" y="290.4" width="54" height="29.2"/><rect class="f" x="691" y="319.6" width="54" height="29.2"/><rect class="f" x="745" y="319.6" width="54" height="29.2"/><line class="g" x1="745" y1="231.5" x2="745" y2="349.3"/><line class="g" x1="690.5" y1="261.2" x2="799.5" y2="261.2"/><line class="g" x1="690.5" y1="290.4" x2="799.5" y2="290.4"/><line class="g" x1="690.5" y1="319.6" x2="799.5" y2="319.6"/><line class="g" x1="691" y1="231.5" x2="691" y2="349.3"/><line class="g" x1="799" y1="231.5" x2="799" y2="349.3"/><line class="g" x1="690.5" y1="232" x2="799.5" y2="232"/><line class="g" x1="690.5" y1="348.8" x2="799.5" y2="348.8"/><g class="y"><text class="i" transform="translate(701.71 252.46)">Col1</text></g><g class="z"><text class="i" transform="translate(755.71 252.46)">Col2</text></g><g class="b"><text class="k" transform="translate(712.87 281.66)">A</text></g><g class="b"><text class="k" transform="translate(767.47 281.66)">2</text></g><g class="b"><text class="k" transform="translate(713.11 310.87)">B</text></g><g class="b"><text class="k" transform="translate(767.47 310.87)">5</text></g><g class="b"><text class="k" transform="translate(713.23 340.08)">C</text></g><g class="b"><text class="k" transform="translate(767.47 340.08)">7</text></g><path d="M251.05,145.88l3.8-10.52-10.69,3.27Zm-95.86,85,93.49-89-.69-.73-93.48,89Z" transform="translate(20.11 30.6)"/><path d="M244.85,287.44l10,5-10,5Zm-90,4.5h91v1h-91Z" transform="translate(20.11 30.6)"/><path d="M249.86,432.63l5,10-11-2ZM155.15,367,248,436.83l-.6.8-92.81-69.79Z" transform="translate(20.11 30.6)"/><path d="M452.93,141.4l10,5-10,5Zm-90,4.5h91v1h-91Z" transform="translate(20.11 30.6)"/><path d="M452.93,287.44l10,5-10,5Zm-90,4.5h91v1h-91Z" transform="translate(20.11 30.6)"/><path d="M452.93,452.2l10,5-10,5Zm-90,4.5h91v1h-91Z" transform="translate(20.11 30.6)"/><path d="M667.46,237.76l3.43,10.64-10.57-3.64Zm-96.21-91.71L665,241.62l-.72.7-93.7-95.57Z" transform="translate(20.11 30.6)"/><path d="M661,277.46l9.9-5.18-10.09-4.82Zm-92.23-2.82,93.14-1.7v-1l-93.15,1.7Z" transform="translate(20.11 30.6)"/><path d="M667.36,309.13l.53-11.17-9.25,6.27Zm-96,161.93,92.59-165-.87-.49-92.6,165Z" transform="translate(20.11 30.6)"/><g class="b"><text class="aa" transform="translate(307.73 78.77)">spli</text></g><g class="b"><text class="aa" transform="translate(341.95 78.77)">t</text></g><g class="b"><text class="aa" transform="translate(509.64 79.1)">a</text></g><g class="b"><text class="aa" transform="translate(521.52 79.1)">p<tspan class="ab" x="12.88" y="0">p</tspan><tspan x="25.69" y="0">ly</tspan></text></g><g class="b"><text class="i" transform="translate(510.24 102.26)">m<tspan class="ac" x="14.64" y="0">e</tspan><tspan x="23.74" y="0">a</tspan></text></g><g class="b"><text class="i" transform="translate(542.88 102.26)">n</text></g><g class="b"><text class="i" transform="translate(552.6 102.26)"><tspan class="ad">(</tspan><tspan x="5.63" y="0">)</tspan></text></g><g class="b"><text class="aa" transform="translate(701.95 194.23)"><tspan class="ab">c</tspan><tspan x="9.97" y="0">o</tspan><tspan class="ae" x="22.87" y="0">m</tspan><tspan x="42.44" y="0">b</tspan><tspan class="af" x="55.32" y="0">i</tspan><tspan x="61.17" y="0">ne</tspan></text></g></svg>